<?xml version="1.0" encoding="utf-8"?>
<!-- Generator: Adobe Illustrator 16.0.0, SVG Export Plug-In . SVG Version: 6.00 Build 0)  -->
<!DOCTYPE svg PUBLIC "-//W3C//DTD SVG 1.1//EN" "http://www.w3.org/Graphics/SVG/1.1/DTD/svg11.dtd">
<svg version="1.1" id="Capa_1" xmlns="http://www.w3.org/2000/svg" xmlns:xlink="http://www.w3.org/1999/xlink" x="0px" y="0px"
	 width="1091.437px" height="1500px" viewBox="204.282 0 1091.437 1500" enable-background="new 204.282 0 1091.437 1500"
	 xml:space="preserve">
<path fill="#484848" d="M1263.802,288.888h-883.16c-62.054,0-112.53-50.461-112.53-112.512c0-62.054,50.477-112.546,112.53-112.546
	h883.16c41.437,0,42.836-63.83,0-63.83h-883.16c-97.243,0-176.36,79.133-176.36,176.375v1031.624
	c0,161.008,130.977,292.001,291.986,292.001h767.534c17.624,0,31.917-14.271,31.917-31.916V320.801
	C1295.719,303.162,1281.426,288.888,1263.802,288.888z M780.604,352.717h234.03v380.985l-90.493-109.179
	c-9.566-10.938-31.674-19.718-48.885-0.313l-94.652,111.27V352.717z M496.271,1436.17c-125.808,0-228.156-102.352-228.156-228.171
	V312.043c30.557,25.384,69.79,40.674,112.53,40.674h336.132v469.497c0,29.052,36.857,42.708,56.226,20.697l126.242-148.384
	l122.736,148.071c22.699,23.915,56.489,6.089,56.489-20.385V352.717h153.422V1436.17H496.271z"/>
</svg>
