<?xml version="1.0" encoding="utf-8"?>
<!-- Generator: Adobe Illustrator 16.0.0, SVG Export Plug-In . SVG Version: 6.00 Build 0)  -->
<!DOCTYPE svg PUBLIC "-//W3C//DTD SVG 1.1//EN" "http://www.w3.org/Graphics/SVG/1.1/DTD/svg11.dtd">
<svg version="1.1" id="Layer_1" xmlns="http://www.w3.org/2000/svg" xmlns:xlink="http://www.w3.org/1999/xlink" x="0px" y="0px"
	 width="28px" height="27px" viewBox="2 3 28 27" enable-background="new 2 3 28 27" xml:space="preserve">
<g>
	
		<polyline fill="none" stroke="#FFFFFF" stroke-width="2" stroke-linecap="round" stroke-linejoin="round" stroke-miterlimit="10" points="
		649,137.999 675,137.999 675,155.999 661,155.999 	"/>
	
		<polyline fill="none" stroke="#FFFFFF" stroke-width="2" stroke-linecap="round" stroke-linejoin="round" stroke-miterlimit="10" points="
		653,155.999 649,155.999 649,141.999 	"/>
	
		<polyline fill="none" stroke="#FFFFFF" stroke-width="2" stroke-linecap="round" stroke-linejoin="round" stroke-miterlimit="10" points="
		661,156 653,162 653,156 	"/>
</g>
<path fill="#484848" d="M21.947,16.332C23.219,14.915,24,13.049,24,11c0-4.411-3.589-8-8-8s-8,3.589-8,8s3.589,8,8,8
	c1.555,0,3.003-0.453,4.232-1.225c4.351,1.64,7.346,5.621,7.727,10.225H4.042c0.259-3.1,1.713-5.989,4.078-8.051
	c0.417-0.363,0.46-0.994,0.097-1.411c-0.362-0.416-0.994-0.46-1.411-0.097C3.751,21.104,2,24.951,2,29c0,0.553,0.448,1,1,1h26
	c0.553,0,1-0.447,1-1C30,23.514,26.82,18.615,21.947,16.332z M10,11c0-3.309,2.691-6,6-6c3.309,0,6,2.691,6,6s-2.691,6-6,6
	C12.691,17,10,14.309,10,11z"/>
</svg>
