<?xml version="1.0" encoding="utf-8"?>
<!-- Generator: Adobe Illustrator 16.0.0, SVG Export Plug-In . SVG Version: 6.00 Build 0)  -->
<!DOCTYPE svg PUBLIC "-//W3C//DTD SVG 1.1//EN" "http://www.w3.org/Graphics/SVG/1.1/DTD/svg11.dtd">
<svg version="1.1" id="Layer_1" xmlns="http://www.w3.org/2000/svg" xmlns:xlink="http://www.w3.org/1999/xlink" x="0px" y="0px"
	 width="200px" height="180px" viewBox="0 0 200 180" enable-background="new 0 0 200 180" xml:space="preserve">
<g>
	<path id="Rectangle" fill="#E9F7FE" stroke="#484848" stroke-width="10" d="M47.573,35h104.854c0.224,0,0.406,0.224,0.406,0.5l0,0
		c0,0.276-0.183,0.5-0.406,0.5H47.573c-0.224,0-0.406-0.224-0.406-0.5l0,0C47.167,35.224,47.35,35,47.573,35z"/>
	<path id="Rectangle-Copy-2" fill="#E9F7FE" stroke="#484848" stroke-width="10" d="M47.573,75h104.854
		c0.226,0,0.406,0.224,0.406,0.5l0,0c0,0.276-0.183,0.5-0.406,0.5H47.573c-0.225,0-0.406-0.224-0.406-0.5l0,0
		C47.167,75.224,47.349,75,47.573,75z"/>
	<path id="Rectangle-Copy-3" fill="#E9F7FE" stroke="#484848" stroke-width="10" d="M48.73,115h102.54
		c0.221,0,0.397,0.225,0.397,0.5l0,0c0,0.275-0.178,0.5-0.397,0.5H48.73c-0.22,0-0.397-0.225-0.397-0.5l0,0
		C48.333,115.225,48.511,115,48.73,115z"/>
	<path id="Rectangle_1_" fill="none" stroke="#484848" stroke-width="10" d="M35,5L35,5c5.523,0,10,3.95,10,8.823v132.354
		C45,151.05,40.523,155,35,155l0,0c-5.523,0-10-3.95-10-8.823V13.823C25,8.95,29.477,5,35,5z"/>
	<path id="Rectangle_2_" fill="#E9F7FE" stroke="#484848" stroke-width="10" d="M70,25L70,25c2.762,0,5,2.238,5,5v10
		c0,2.762-2.238,5-5,5l0,0c-2.762,0-5-2.238-5-5V30C65,27.238,67.238,25,70,25z"/>
	<path id="Rectangle-Copy-4" fill="#E9F7FE" stroke="#484848" stroke-width="10" d="M100,25L100,25c2.762,0,5,2.238,5,5v10
		c0,2.762-2.238,5-5,5l0,0c-2.762,0-5-2.238-5-5V30C95,27.238,97.238,25,100,25z"/>
	<path id="Rectangle-Copy-5" fill="#E9F7FE" stroke="#484848" stroke-width="10" d="M100,65L100,65c2.762,0,5,2.238,5,5v10
		c0,2.762-2.238,5-5,5l0,0c-2.762,0-5-2.238-5-5V70C95,67.238,97.238,65,100,65z"/>
	<path id="Rectangle-Copy-6" fill="#E9F7FE" stroke="#484848" stroke-width="10" d="M130,65L130,65c2.762,0,5,2.238,5,5v10
		c0,2.762-2.238,5-5,5l0,0c-2.762,0-5-2.238-5-5V70C125,67.238,127.238,65,130,65z"/>
	<path id="Rectangle-Copy-7" fill="#E9F7FE" stroke="#484848" stroke-width="10" d="M70,105L70,105c2.762,0,5,2.238,5,5v10
		c0,2.762-2.238,5-5,5l0,0c-2.762,0-5-2.238-5-5v-10C65,107.238,67.238,105,70,105z"/>
	<path id="Rectangle-Copy-8" fill="#E9F7FE" stroke="#484848" stroke-width="10" d="M100,105L100,105c2.762,0,5,2.238,5,5v10
		c0,2.762-2.238,5-5,5l0,0c-2.762,0-5-2.238-5-5v-10C95,107.238,97.238,105,100,105z"/>
	<path id="Rectangle-Copy-9" fill="#E9F7FE" stroke="#484848" stroke-width="10" d="M130,105L130,105c2.762,0,5,2.238,5,5v10
		c0,2.762-2.238,5-5,5l0,0c-2.762,0-5-2.238-5-5v-10C125,107.238,127.238,105,130,105z"/>
	<path id="Rectangle-Copy" fill="none" stroke="#484848" stroke-width="10" d="M165,5L165,5c5.523,0,10,3.95,10,8.823v132.354
		c0,4.873-4.477,8.823-10,8.823l0,0c-5.523,0-10-3.95-10-8.823V13.823C155,8.95,159.477,5,165,5z"/>
	<path id="Rectangle_3_" fill="none" stroke="#484848" stroke-width="10" d="M15,155h170c5.523,0,10,4.477,10,10l0,0
		c0,5.523-4.477,10-10,10H15c-5.523,0-10-4.477-10-10l0,0C5,159.477,9.477,155,15,155z"/>
</g>
</svg>
