<?xml version="1.0" encoding="utf-8"?>
<!-- Generator: Adobe Illustrator 16.0.0, SVG Export Plug-In . SVG Version: 6.00 Build 0)  -->
<!DOCTYPE svg PUBLIC "-//W3C//DTD SVG 1.1//EN" "http://www.w3.org/Graphics/SVG/1.1/DTD/svg11.dtd">
<svg version="1.1" id="Capa_1" xmlns="http://www.w3.org/2000/svg" xmlns:xlink="http://www.w3.org/1999/xlink" x="0px" y="0px"
	 width="1500.008px" height="1185.238px" viewBox="0 157.382 1500.008 1185.238"
	 enable-background="new 0 157.382 1500.008 1185.238" xml:space="preserve">
<g>
	<path fill="#484848" d="M1456.157,157.382H434.228c-24.214,0-43.841,19.63-43.841,43.841v155.63h-153.62
		c-24.213,0-43.84,19.63-43.84,43.841v148.715H43.841C19.63,549.406,0,569.031,0,593.244v705.535
		c0,24.211,19.63,43.841,43.841,43.841H1065.78c24.211,0,43.841-19.63,43.841-43.841v-148.715h149.08
		c24.211,0,43.841-19.625,43.841-43.841v-155.63h153.625c24.21,0,43.841-19.625,43.841-43.84V201.22
		C1499.998,177.012,1480.368,157.382,1456.157,157.382z M953.873,637.085l-399.067,369.396l-399.07-369.396H953.873z
		 M87.679,693.561l133.174,123.269L87.679,942.876V693.561z M1021.939,1254.939H87.679v-192.402c2.257-1.451,4.422-3.12,6.444-5.034
		l191.22-180.979l239.681,221.864c8.407,7.782,19.096,11.669,29.782,11.669c10.688,0,21.38-3.89,29.774-11.669l239.693-221.864
		l194.573,184.154c0.992,0.943,2.026,1.818,3.091,2.651L1021.939,1254.939L1021.939,1254.939z M1021.939,942.881L888.758,816.832
		l133.182-123.27V942.881z M1214.858,1062.386h-105.24V593.244c0-24.213-19.63-43.841-43.841-43.841H280.605V444.528h934.253
		V1062.386z M1412.318,862.915h-109.783V400.69c0-24.211-19.631-43.84-43.841-43.84H478.065V245.061h934.253V862.915z"/>
</g>
</svg>
