<?xml version="1.0" encoding="utf-8"?>
<!-- Generator: Adobe Illustrator 16.0.0, SVG Export Plug-In . SVG Version: 6.00 Build 0)  -->
<!DOCTYPE svg PUBLIC "-//W3C//DTD SVG 1.1//EN" "http://www.w3.org/Graphics/SVG/1.1/DTD/svg11.dtd">
<svg version="1.1" id="Слой_1" xmlns="http://www.w3.org/2000/svg" xmlns:xlink="http://www.w3.org/1999/xlink" x="0px" y="0px"
	 width="32px" height="32px" viewBox="0 0 32 32" enable-background="new 0 0 32 32" xml:space="preserve">
<g id="Cancel">
	<path fill="#2367B7" d="M16,0C7.163,0,0,7.163,0,16c0,8.836,7.163,16,16,16c8.836,0,16-7.163,16-16S24.836,0,16,0z M16,30
		C8.268,30,2,23.732,2,16C2,8.268,8.268,2,16,2c7.732,0,14,6.268,14,14C30,23.732,23.732,30,16,30z"/>
	<path fill="#2367B7" d="M22.729,21.271l-5.268-5.271l5.238-5.195c0.395-0.391,0.395-1.024,0-1.414s-1.034-0.39-1.428,0L16.04,14.58
		l-5.309-5.31c-0.394-0.396-1.034-0.396-1.428,0c-0.394,0.395-0.394,1.037,0,1.432l5.301,5.302l-5.331,5.287
		c-0.394,0.393-0.394,1.023,0,1.414c0.394,0.393,1.034,0.393,1.429,0l5.324-5.28l5.276,5.276c0.394,0.396,1.034,0.396,1.429,0
		C23.123,22.309,23.123,21.667,22.729,21.271z"/>
</g>
</svg>
