<?xml version="1.0" encoding="utf-8"?>
<!-- Generator: Adobe Illustrator 16.0.0, SVG Export Plug-In . SVG Version: 6.00 Build 0)  -->
<!DOCTYPE svg PUBLIC "-//W3C//DTD SVG 1.1//EN" "http://www.w3.org/Graphics/SVG/1.1/DTD/svg11.dtd">
<svg version="1.1" id="Layer_2" xmlns="http://www.w3.org/2000/svg" xmlns:xlink="http://www.w3.org/1999/xlink" x="0px" y="0px"
	 width="1402.655px" height="1218.75px" viewBox="50.173 140.625 1402.655 1218.75"
	 enable-background="new 50.173 140.625 1402.655 1218.75" xml:space="preserve">
<title></title>
<g>
	<path fill="#484848" d="M1406.25,703.125c-9.77-0.063-19.274-3.177-27.188-8.906L750,245.156L120.938,694.219
		c-22.275,13.192-51.027,5.83-64.219-16.445c-11.602-19.59-7.45-44.684,9.844-59.492l656.25-468.75
		c16.273-11.586,38.102-11.586,54.375,0l656.25,468.75c20.97,15.181,25.663,44.487,10.482,65.457
		C1435.166,695.83,1421.177,703.029,1406.25,703.125z"/>
	<path fill="#484848" d="M234.375,421.875c-25.888,0-46.875-20.986-46.875-46.875V187.5c0-25.888,20.987-46.875,46.875-46.875h187.5
		c25.889,0,46.875,20.987,46.875,46.875s-20.986,46.875-46.875,46.875H281.25V375C281.25,400.889,260.263,421.875,234.375,421.875z"
		/>
	<path fill="#484848" d="M1171.875,1359.375H937.5c-25.889,0-46.875-20.986-46.875-46.875V984.375h-281.25V1312.5
		c0,25.889-20.986,46.875-46.875,46.875H328.125c-77.665,0-140.625-62.96-140.625-140.625V750c0-25.889,20.987-46.875,46.875-46.875
		S281.25,724.111,281.25,750v468.75c0,25.889,20.987,46.875,46.875,46.875h187.5V937.5c0-25.889,20.986-46.875,46.875-46.875h375
		c25.889,0,46.875,20.986,46.875,46.875v328.125h187.5c25.889,0,46.875-20.986,46.875-46.875V750
		c0-25.889,20.986-46.875,46.875-46.875S1312.5,724.111,1312.5,750v468.75C1312.5,1296.415,1249.54,1359.375,1171.875,1359.375z"/>
</g>
</svg>
