<?xml version="1.0" encoding="utf-8"?>
<!-- Generator: Adobe Illustrator 16.0.0, SVG Export Plug-In . SVG Version: 6.00 Build 0)  -->
<!DOCTYPE svg PUBLIC "-//W3C//DTD SVG 1.1//EN" "http://www.w3.org/Graphics/SVG/1.1/DTD/svg11.dtd">
<svg version="1.1" id="Capa_1" xmlns="http://www.w3.org/2000/svg" xmlns:xlink="http://www.w3.org/1999/xlink" x="0px" y="0px"
	 width="1496.732px" height="1355.018px" viewBox="0 0 1496.732 1355.018" enable-background="new 0 0 1496.732 1355.018"
	 xml:space="preserve">
<g>
	<path fill="#707070" d="M1476.925,854.535c-25.438-22.375-66.815-19.003-89.19,6.438l-236.011,266.045V63.753
		c0-34.941-28.812-63.753-63.753-63.753c-34.939,0-63.753,28.812-63.753,63.753v1063.265L788.209,860.972
		c-25.439-25.438-63.753-28.813-89.193-6.438c-25.438,25.439-28.811,63.753-6.437,89.192l347.577,388.954
		c26.053,32.184,72.026,27.279,92.563,0l350.643-388.954C1505.736,918.595,1502.672,876.91,1476.925,854.535z"/>
	<path fill="#707070" d="M807.314,414.355L462.804,25.4c-30.648-30.957-68.964-32.796-95.63,0L16.533,414.355
		c-22.375,25.438-19.003,66.816,6.437,89.191c39.232,31.264,78.771,9.81,89.192-6.438l236.009-266.046v1060.199
		c0,34.941,28.813,63.753,63.753,63.753c34.941,0,63.753-25.438,63.753-60.688V231.372l236.009,266.046
		c25.439,25.438,63.755,28.813,89.193,6.438C826.318,478.108,829.689,439.795,807.314,414.355z"/>
</g>
</svg>
