<?xml version="1.0" encoding="utf-8"?>
<!-- Generator: Adobe Illustrator 16.0.0, SVG Export Plug-In . SVG Version: 6.00 Build 0)  -->
<!DOCTYPE svg PUBLIC "-//W3C//DTD SVG 1.1//EN" "http://www.w3.org/Graphics/SVG/1.1/DTD/svg11.dtd">
<svg version="1.1" id="Layer_1" xmlns="http://www.w3.org/2000/svg" xmlns:xlink="http://www.w3.org/1999/xlink" x="0px" y="0px"
	 width="1012.5px" height="1012.5px" viewBox="253.125 253.125 1012.5 1012.5"
	 enable-background="new 253.125 253.125 1012.5 1012.5" xml:space="preserve">
<g>
	<g id="Icon-Pencil" transform="translate(179.000000, 382.000000)">
		<path id="Fill-168" fill="#2367B7" d="M74.125,883.625l86.719-349.219L692.875,2.375l262.5,262.5L423.344,796.906L74.125,883.625
			L74.125,883.625z M221.781,567.219l-56.25,225l225-56.25l473.438-473.438l-168.75-168.75L221.781,567.219L221.781,567.219z"/>
		<path id="Fill-169" fill="#2367B7" d="M367.094,775.813c-23.438-91.406-93.75-161.719-185.156-185.156l16.406-65.625
			c114.844,28.125,203.906,117.188,232.031,232.031L367.094,775.813"/>
		<polyline id="Fill-170" fill="#2367B7" points="360.063,646.906 313.188,597.688 779.594,131.281 826.469,178.156 
			360.063,646.906 		"/>
		<path id="Fill-171" fill="#2367B7" d="M121,836.75l103.125-25.781c-9.375-37.5-39.844-67.969-77.344-77.344L121,836.75"/>
		<path id="Fill-172" fill="#2367B7" d="M981.156,239.094l-262.5-262.5l105.469-105.469l16.406,2.344
			c126.563,16.406,227.344,117.188,243.75,243.75l2.344,16.406L981.156,239.094L981.156,239.094z M814.75-23.406l168.75,168.75
			l32.813-32.813c-18.75-84.375-84.375-150-168.75-168.75L814.75-23.406L814.75-23.406z"/>
	</g>
</g>
</svg>
