<?xml version="1.0" encoding="utf-8"?>
<!-- Generator: Adobe Illustrator 16.0.0, SVG Export Plug-In . SVG Version: 6.00 Build 0)  -->
<!DOCTYPE svg PUBLIC "-//W3C//DTD SVG 1.1//EN" "http://www.w3.org/Graphics/SVG/1.1/DTD/svg11.dtd">
<svg version="1.1" id="Layer_1" xmlns="http://www.w3.org/2000/svg" xmlns:xlink="http://www.w3.org/1999/xlink" x="0px" y="0px"
	 width="1691px" height="1407px" viewBox="0 0 1691 1407" enable-background="new 0 0 1691 1407" xml:space="preserve">
<g id="packet">
	<path fill="#484848" d="M1691,165.177C1691,73.952,1617.048,0,1525.823,0H165.177C73.952,0,0,73.952,0,165.177v1076.646
		C0,1333.048,73.952,1407,165.177,1407h1360.646c91.225,0,165.177-73.952,165.177-165.177V165.177z M166.062,132h1361.057
		c18.216,0,32.881,14.528,32.881,32.746v1.433L869.916,856.337c-8.417,8.417-18.208,9.675-23.318,9.675
		c-5.109,0-14.934-1.258-23.353-9.675L133,166.085v-1.339C133,146.528,147.846,132,166.062,132z M1527.119,1275H166.062
		c-18.216,0-33.062-15.084-33.062-33.301V352.961l596.826,596.816c31.197,31.196,72.684,48.376,116.803,48.376
		c44.125-0.003,85.528-17.187,116.725-48.383L1560,353.054v888.646C1560,1259.916,1545.335,1275,1527.119,1275z"/>
</g>
<g id="Layer_1_1_">
</g>
</svg>
