<?xml version="1.0" encoding="utf-8"?>
<!-- Generator: Adobe Illustrator 16.0.0, SVG Export Plug-In . SVG Version: 6.00 Build 0)  -->
<!DOCTYPE svg PUBLIC "-//W3C//DTD SVG 1.1//EN" "http://www.w3.org/Graphics/SVG/1.1/DTD/svg11.dtd">
<svg version="1.1" id="Layer_1" xmlns="http://www.w3.org/2000/svg" xmlns:xlink="http://www.w3.org/1999/xlink" x="0px" y="0px"
	 width="1500px" height="1500px" viewBox="0 0 1500 1500" enable-background="new 0 0 1500 1500" xml:space="preserve">
<g>
	<g>
		<g>
			<path fill="#2367B7" d="M750,0.036C336.45,0.036,0,336.473,0,749.995c0,413.532,336.45,749.964,750,749.964
				s750-336.432,750-749.964C1500,336.473,1163.55,0.036,750,0.036z M750,1363.6c-338.359,0-613.636-275.259-613.636-613.6
				S411.641,136.4,750,136.4s613.637,275.259,613.637,613.595C1363.637,1088.346,1088.359,1363.6,750,1363.6z"/>
			<path fill="#2367B7" d="M750,590.945c-37.654,0-68.182,30.527-68.182,68.182v454.469c0,37.654,30.527,68.182,68.182,68.182
				s68.182-30.527,68.182-68.182V659.127C818.182,621.478,787.654,590.945,750,590.945z"/>
			<path fill="#2367B7" d="M750,318.232c-17.955,0-35.505,7.272-48.228,19.955c-12.682,12.682-19.954,30.272-19.954,48.227
				s7.272,35.5,19.954,48.227c12.683,12.682,30.272,19.955,48.228,19.955s35.5-7.273,48.223-19.955
				c12.682-12.727,19.959-30.272,19.959-48.227s-7.277-35.545-19.959-48.227C785.5,325.5,767.955,318.232,750,318.232z"/>
		</g>
	</g>
</g>
</svg>
