<?xml version="1.0" encoding="utf-8"?>
<!-- Generator: Adobe Illustrator 16.0.0, SVG Export Plug-In . SVG Version: 6.00 Build 0)  -->
<!DOCTYPE svg PUBLIC "-//W3C//DTD SVG 1.1//EN" "http://www.w3.org/Graphics/SVG/1.1/DTD/svg11.dtd">
<svg version="1.1" id="Capa_1" xmlns="http://www.w3.org/2000/svg" xmlns:xlink="http://www.w3.org/1999/xlink" x="0px" y="0px"
	 width="1452.955px" height="1500px" viewBox="0 0 1452.955 1500" enable-background="new 0 0 1452.955 1500" xml:space="preserve">
<g>
	<g>
		<path fill="#FFFFFF" d="M1438.073,0H61.927C40.804,0,23.522,17.282,23.522,38.404c0,21.122,17.282,38.404,38.404,38.404h82.889
			v1383.828c0,14.081,7.681,27.203,20.162,33.924c12.481,6.722,27.523,6.08,39.364-1.921l166.738-111.052l167.377,111.372
			c12.802,8.641,29.764,8.641,42.563,0l166.738-111.052l167.378,111.372c12.802,8.641,29.764,8.641,42.564,0l166.737-111.053
			l167.378,111.371c6.4,4.161,13.762,6.401,21.122,6.401c6.08,0,12.48-1.602,18.241-4.48c12.481-6.721,20.162-19.843,20.162-33.924
			l-0.64-1383.828h87.369c21.121,0,38.403-17.282,38.403-38.404C1476.479,18.242,1459.195,0,1438.073,0z M1274.855,1388.948
			l-128.975-85.771c-12.801-8.641-29.763-8.641-42.563,0L936.58,1414.551l-167.378-111.372c-12.802-8.641-29.763-8.641-42.564,0
			L559.899,1414.23l-167.378-111.053c-12.802-8.641-29.764-8.641-42.564,0l-128.333,85.449V76.488h1052.913L1274.855,1388.948z"/>
		<path fill="#FFFFFF" d="M398.282,613.186h402.282c21.123,0,38.404-17.281,38.404-38.403s-17.281-38.404-38.404-38.404H398.282
			c-21.122,0-38.404,17.282-38.404,38.404S376.84,613.186,398.282,613.186z"/>
		<path fill="#FFFFFF" d="M398.282,746.64h301.473c21.122,0,38.403-17.281,38.403-38.403s-17.281-38.404-38.403-38.404H398.282
			c-21.122,0-38.404,17.282-38.404,38.404S376.84,746.64,398.282,746.64z"/>
		<path fill="#FFFFFF" d="M1001.547,613.186h100.49c21.123,0,38.404-17.281,38.404-38.403s-17.281-38.404-38.404-38.404h-100.49
			c-21.122,0-38.404,17.282-38.404,38.404S980.104,613.186,1001.547,613.186z"/>
		<path fill="#FFFFFF" d="M1001.547,746.64h100.49c21.123,0,38.404-17.281,38.404-38.403s-17.281-38.404-38.404-38.404h-100.49
			c-21.122,0-38.404,17.282-38.404,38.404S980.104,746.64,1001.547,746.64z"/>
		<path fill="#FFFFFF" d="M398.282,304.993h402.282c21.123,0,38.404-17.282,38.404-38.404s-17.281-38.404-38.404-38.404H398.282
			c-21.122,0-38.404,17.282-38.404,38.404S376.84,304.993,398.282,304.993z"/>
		<path fill="#FFFFFF" d="M398.282,438.127h301.473c21.122,0,38.403-17.282,38.403-38.404c0-21.122-17.281-38.404-38.403-38.404
			H398.282c-21.122,0-38.404,17.282-38.404,38.404C359.878,420.845,376.84,438.127,398.282,438.127z"/>
		<path fill="#FFFFFF" d="M1001.547,304.993h100.49c21.123,0,38.404-17.282,38.404-38.404s-17.281-38.404-38.404-38.404h-100.49
			c-21.122,0-38.404,17.282-38.404,38.404S980.104,304.993,1001.547,304.993z"/>
		<path fill="#FFFFFF" d="M1001.547,438.127h100.49c21.123,0,38.404-17.282,38.404-38.404c0-21.122-17.281-38.404-38.404-38.404
			h-100.49c-21.122,0-38.404,17.282-38.404,38.404C963.143,420.845,980.104,438.127,1001.547,438.127z"/>
		<path fill="#FFFFFF" d="M398.282,925.219h402.282c21.123,0,38.404-17.281,38.404-38.403s-17.281-38.404-38.404-38.404H398.282
			c-21.122,0-38.404,17.282-38.404,38.404S376.84,925.219,398.282,925.219z"/>
		<path fill="#FFFFFF" d="M398.282,1058.354h301.473c21.122,0,38.403-17.281,38.403-38.403c0-21.123-17.281-38.404-38.403-38.404
			H398.282c-21.122,0-38.404,17.281-38.404,38.404C359.878,1041.071,376.84,1058.354,398.282,1058.354z"/>
		<path fill="#FFFFFF" d="M1001.547,925.219h100.49c21.123,0,38.404-17.281,38.404-38.403s-17.281-38.404-38.404-38.404h-100.49
			c-21.122,0-38.404,17.282-38.404,38.404S980.104,925.219,1001.547,925.219z"/>
		<path fill="#FFFFFF" d="M1001.547,1058.354h100.49c21.123,0,38.404-17.281,38.404-38.403c0-21.123-17.281-38.404-38.404-38.404
			h-100.49c-21.122,0-38.404,17.281-38.404,38.404C963.143,1041.071,980.104,1058.354,1001.547,1058.354z"/>
	</g>
</g>
</svg>
