<?xml version="1.0" encoding="utf-8"?>
<!-- Generator: Adobe Illustrator 16.0.0, SVG Export Plug-In . SVG Version: 6.00 Build 0)  -->
<!DOCTYPE svg PUBLIC "-//W3C//DTD SVG 1.1//EN" "http://www.w3.org/Graphics/SVG/1.1/DTD/svg11.dtd">
<svg version="1.1" id="Layer_1" xmlns="http://www.w3.org/2000/svg" xmlns:xlink="http://www.w3.org/1999/xlink" x="0px" y="0px"
	 width="6.749px" height="4.949px" viewBox="0.466 1.365 6.749 4.949" enable-background="new 0.466 1.365 6.749 4.949"
	 xml:space="preserve">
<g id="Layer_x0020_1">
	<path fill="#484848" d="M6.192,1.365H1.465c-0.125,0-0.225,0.101-0.225,0.225c0,0.124,0.101,0.225,0.225,0.225h4.727
		c0.315,0,0.571,0.256,0.571,0.573v2.904c0,0.315-0.256,0.572-0.571,0.572H1.488c-0.315,0-0.572-0.257-0.572-0.572V2.365
		c0-0.125-0.101-0.225-0.225-0.225S0.466,2.241,0.466,2.365v2.927c0,0.563,0.458,1.022,1.022,1.022h4.705
		c0.563,0,1.022-0.459,1.022-1.022V2.388C7.215,1.823,6.756,1.365,6.192,1.365z M5.438,4.559c-0.137,0-0.248-0.11-0.248-0.246
		c0-0.125-0.101-0.226-0.225-0.226c-0.125,0-0.225,0.101-0.225,0.226c0,0.305,0.198,0.563,0.472,0.656v0.127
		c0,0.124,0.101,0.226,0.226,0.226c0.124,0,0.225-0.102,0.225-0.226V4.969c0.273-0.094,0.472-0.352,0.472-0.656
		c0-0.385-0.313-0.698-0.696-0.698c-0.137,0-0.248-0.111-0.248-0.247s0.111-0.247,0.248-0.247c0.135,0,0.246,0.111,0.246,0.247
		c0,0.125,0.101,0.225,0.225,0.225c0.125,0,0.226-0.101,0.226-0.225c0-0.305-0.198-0.562-0.472-0.656V2.583
		c0-0.124-0.101-0.225-0.225-0.225c-0.125,0-0.226,0.101-0.226,0.225v0.128C4.938,2.806,4.74,3.063,4.74,3.368
		c0,0.384,0.313,0.697,0.697,0.697c0.135,0,0.246,0.111,0.246,0.248C5.684,4.448,5.572,4.559,5.438,4.559z M1.59,5.189h2.25
		c0.124,0,0.225-0.102,0.225-0.225c0-0.124-0.101-0.225-0.225-0.225H1.59c-0.125,0-0.225,0.101-0.225,0.225
		C1.365,5.088,1.466,5.189,1.59,5.189z M1.59,2.94h2.25c0.124,0,0.225-0.101,0.225-0.225c0-0.125-0.101-0.225-0.225-0.225H1.59
		c-0.125,0-0.225,0.101-0.225,0.225C1.365,2.839,1.466,2.94,1.59,2.94z M1.59,4.064h2.25c0.124,0,0.225-0.101,0.225-0.225
		c0-0.124-0.101-0.225-0.225-0.225H1.59c-0.125,0-0.225,0.101-0.225,0.225C1.365,3.964,1.466,4.064,1.59,4.064z"/>
</g>
</svg>
