<?xml version="1.0" encoding="utf-8"?>
<!-- Generator: Adobe Illustrator 16.0.0, SVG Export Plug-In . SVG Version: 6.00 Build 0)  -->
<!DOCTYPE svg PUBLIC "-//W3C//DTD SVG 1.1//EN" "http://www.w3.org/Graphics/SVG/1.1/DTD/svg11.dtd">
<svg version="1.1" id="Layer_1" xmlns="http://www.w3.org/2000/svg" xmlns:xlink="http://www.w3.org/1999/xlink" x="0px" y="0px"
	 width="1214.896px" height="1500px" viewBox="142.552 0 1214.896 1500" enable-background="new 142.552 0 1214.896 1500"
	 xml:space="preserve">
<g id="XMLID_2_">
	<g>
		<g>
			<path fill="#484848" d="M750,0C415.051,0,142.552,272.499,142.552,607.448c0,138.21,45.293,268.373,130.984,376.418
				c110.954,139.895,433.612,472.058,447.291,486.127L749.996,1500l29.173-30.003c13.687-14.077,336.442-346.313,447.413-486.253
				c85.614-107.96,130.866-238.077,130.866-376.296C1357.448,272.499,1084.949,0,750,0z M1162.821,933.182
				C1073.488,1045.833,833.58,1296.43,750,1383.105c-83.571-86.672-323.395-337.195-412.707-449.806
				c-74.165-93.516-113.367-206.19-113.367-325.852c0-290.08,235.994-526.074,526.074-526.074
				c290.075,0,526.074,235.994,526.069,526.074C1276.069,727.117,1236.908,839.756,1162.821,933.182z"/>
			<path fill="#484848" d="M750,241.133c-198.269,0-359.569,161.301-359.569,359.569S551.735,960.271,750,960.271
				s359.569-161.305,359.569-359.569S948.27,241.133,750,241.133z M750,878.897c-153.398,0-278.195-124.8-278.195-278.195
				c0-153.398,124.801-278.195,278.195-278.195s278.191,124.8,278.195,278.195C1028.195,754.102,903.399,878.897,750,878.897z"/>
		</g>
	</g>
</g>
</svg>
