<?xml version="1.0" encoding="utf-8"?>
<!-- Generator: Adobe Illustrator 16.0.0, SVG Export Plug-In . SVG Version: 6.00 Build 0)  -->
<!DOCTYPE svg PUBLIC "-//W3C//DTD SVG 1.1//EN" "http://www.w3.org/Graphics/SVG/1.1/DTD/svg11.dtd">
<svg version="1.1" id="Layer_1" xmlns="http://www.w3.org/2000/svg" xmlns:xlink="http://www.w3.org/1999/xlink" x="0px" y="0px"
	 width="1500.005px" height="1082.253px" viewBox="-0.001 208.875 1500.005 1082.253"
	 enable-background="new -0.001 208.875 1500.005 1082.253" xml:space="preserve">
<g>
	<g>
		<path fill="#484848" d="M1493.897,876.255l-131.578-157.896c-1.222-1.465-2.818-2.353-4.263-3.483
			c-0.996-0.785-1.688-1.828-2.818-2.481L486.82,212.402c-6.899-3.984-15.202-4.626-22.576-1.761L122.142,342.22
			c-2.584,0.993-4.658,2.634-6.715,4.271c-0.598,0.475-1.368,0.697-1.928,1.228c-2.66,2.525-4.682,5.563-6.085,8.895
			c-0.062,0.152-0.208,0.243-0.27,0.396L1.881,620.165c-4.664,11.681-0.425,25.017,10.113,31.854l973.682,631.576
			c0.653,0.425,1.4,0.595,2.083,0.955c0.724,0.387,1.412,0.686,2.165,0.999c3.237,1.356,6.612,2.288,10.081,2.288h0.006h0.006
			c3.272,0,6.495-0.794,9.612-2.027c0.322-0.126,0.674-0.067,0.99-0.208c1.934-0.853,3.709-1.951,5.353-3.199
			c0.059-0.047,0.129,4.383,0.188,4.336l0.064,4.389c0.009,0,0.021,0,0.029,0l473.59-372.797c5.64-4.383,9.252-15.308,10.011-22.4
			C1500.615,888.835,1498.471,881.73,1493.897,876.255z M471.428,264.275l822.401,473.505l-242.268,176.194L190.099,372.483
			L471.428,264.275z M980.637,1217.602L58.793,619.638l85.5-213.776l879.507,552.82L980.637,1217.602z M1037.036,1199.379
			l39.782-238.693l260.842-189.703l98.388,118.061L1037.036,1199.379z"/>
	</g>
</g>
</svg>
