<?xml version="1.0" encoding="utf-8"?>
<!-- Generator: Adobe Illustrator 16.0.0, SVG Export Plug-In . SVG Version: 6.00 Build 0)  -->
<!DOCTYPE svg PUBLIC "-//W3C//DTD SVG 1.1//EN" "http://www.w3.org/Graphics/SVG/1.1/DTD/svg11.dtd">
<svg version="1.1" id="Layer_1" xmlns="http://www.w3.org/2000/svg" xmlns:xlink="http://www.w3.org/1999/xlink" x="0px" y="0px"
	 width="1500px" height="1251.68px" viewBox="0 124.16 1500 1251.68" enable-background="new 0 124.16 1500 1251.68"
	 xml:space="preserve">
<g>
	<g>
		<path fill="#484848" d="M1413.959,443.606h-121.238v48.858h72.381v661.908h-209.202v-49.104h-48.858v49.104l-37.203,74.388
			v-123.506h-48.857v270.571H1500V615.711L1413.959,443.606z M1075.37,1326.965l61.632-123.246h247.031l61.632,123.246H1075.37z
			 M1451.162,1228.761L1451.162,1228.761l-37.203-74.388V552.855l37.203,74.389V1228.761z"/>
		<path fill="#484848" d="M940.052,1228.724l-37.186-74.351v-49.104h-48.858v49.104H644.806v-49.104h-48.858v49.104l-37.202,74.388
			v-123.506h-48.858v270.571h479.02v-270.571h-48.854V1228.724z M564.28,1326.965l61.632-123.246h247.031l61.632,123.246H564.28z"/>
		<path fill="#484848" d="M1243.862,296.265h0.017l-86.061-172.104H850.899l-86.058,172.104v760.129h479.021V296.265z
			 M899.762,173.035h209.201v661.908H899.762V173.035z M813.7,307.814l37.203-74.388v601.517L813.7,909.311V307.814z
			 M819.215,1007.535l61.632-123.246h247.031l61.632,123.246H819.215z M1195.021,909.314L1195.021,909.314l-37.202-74.389V233.413
			l37.202,74.388V909.314z"/>
		<path fill="#484848" d="M430.161,1228.761l-37.202-74.388v-49.104h-48.858v49.104H134.919V492.465h71.195v-48.858H86.061
			L0,615.711v760.129h479.02v-270.588h-48.858V1228.761z M48.858,627.244l37.203-74.388v601.517l-37.203,74.388V627.244z
			 M54.373,1326.965l61.632-123.246h247.032l61.632,123.246H54.373z"/>
		<path fill="#484848" d="M733.955,296.265h0.017L647.911,124.16H340.992l-86.057,172.104v760.129h479.02V296.265z M389.854,173.035
			h209.219v661.908H389.854V173.035z M303.81,307.814l37.203-74.388v601.517l-37.203,74.388V307.814z M309.324,1007.535
			l61.632-123.246h247.032l61.631,123.246H309.324z M685.117,909.314l-37.203-74.389V233.413l37.203,74.388V909.314z"/>
	</g>
</g>
</svg>
