<?xml version="1.0" encoding="utf-8"?>
<!-- Generator: Adobe Illustrator 16.0.0, SVG Export Plug-In . SVG Version: 6.00 Build 0)  -->
<!DOCTYPE svg PUBLIC "-//W3C//DTD SVG 1.1//EN" "http://www.w3.org/Graphics/SVG/1.1/DTD/svg11.dtd">
<svg version="1.1" id="Layer_1" xmlns="http://www.w3.org/2000/svg" xmlns:xlink="http://www.w3.org/1999/xlink" x="0px" y="0px"
	 width="1218.75px" height="1312.5px" viewBox="93.75 93.75 1218.75 1312.5" enable-background="new 93.75 93.75 1218.75 1312.5"
	 xml:space="preserve">
<path fill="#484848" d="M1125,468.75h-93.75v-46.875c0-180.938-147.188-328.125-328.125-328.125S375,240.938,375,421.875v46.875
	h-93.75c-103.125,0-187.5,84.375-187.5,187.5v562.5c0,103.125,84.375,187.5,187.5,187.5H1125c103.125,0,187.5-84.375,187.5-187.5
	v-562.5C1312.5,553.125,1228.125,468.75,1125,468.75z M468.75,421.875c0-129.375,105-234.375,234.375-234.375
	S937.5,292.5,937.5,421.875v46.875H468.75V421.875z M1218.75,1218.75c0,51.563-42.188,93.75-93.75,93.75H281.25
	c-51.563,0-93.75-42.188-93.75-93.75v-562.5c0-51.563,42.188-93.75,93.75-93.75H375v140.625c0,26.25,20.625,46.875,46.875,46.875
	s46.875-20.625,46.875-46.875V562.5H937.5v140.625c0,26.25,20.625,46.875,46.875,46.875s46.875-20.625,46.875-46.875V562.5H1125
	c51.563,0,93.75,42.188,93.75,93.75V1218.75z"/>
</svg>
