<?xml version="1.0" encoding="utf-8"?>
<!-- Generator: Adobe Illustrator 16.0.0, SVG Export Plug-In . SVG Version: 6.00 Build 0)  -->
<!DOCTYPE svg PUBLIC "-//W3C//DTD SVG 1.1//EN" "http://www.w3.org/Graphics/SVG/1.1/DTD/svg11.dtd">
<svg version="1.1" id="Layer_1" xmlns="http://www.w3.org/2000/svg" xmlns:xlink="http://www.w3.org/1999/xlink" x="0px" y="0px"
	 width="1125px" height="1453.125px" viewBox="187.5 23.438 1125 1453.125" enable-background="new 187.5 23.438 1125 1453.125"
	 xml:space="preserve">
<g>
	<path fill="#484848" d="M492.188,304.688h515.625c25.887,0,46.875-20.988,46.875-46.875v-187.5
		c0-25.887-20.988-46.875-46.875-46.875H492.188c-25.887,0-46.875,20.988-46.875,46.875v187.5
		C445.313,283.699,466.301,304.688,492.188,304.688z M539.063,117.188h421.875v93.75H539.063V117.188z"/>
	<path fill="#484848" d="M1265.625,117.188h-93.75c-25.887,0-46.875,20.988-46.875,46.875s20.988,46.875,46.875,46.875h46.875
		v1171.875h-937.5V210.938h46.875c25.887,0,46.875-20.988,46.875-46.875s-20.988-46.875-46.875-46.875h-93.75
		c-25.887,0-46.875,20.988-46.875,46.875v1265.625c0,25.887,20.988,46.875,46.875,46.875h1031.25
		c25.887,0,46.875-20.988,46.875-46.875V164.063C1312.5,138.176,1291.512,117.188,1265.625,117.188z"/>
	<path fill="#484848" d="M468.75,585.938h234.375c25.887,0,46.875-20.988,46.875-46.875s-20.988-46.875-46.875-46.875H468.75
		c-25.887,0-46.875,20.988-46.875,46.875S442.863,585.938,468.75,585.938z"/>
	<path fill="#484848" d="M1007.813,1125H890.625c-25.887,0-46.875,20.988-46.875,46.875s20.988,46.875,46.875,46.875h117.188
		c25.887,0,46.875-20.988,46.875-46.875S1033.699,1125,1007.813,1125z"/>
	<path fill="#484848" d="M1007.813,703.125h-281.25H492.188c-25.887,0-46.875,20.988-46.875,46.875s20.988,46.875,46.875,46.875
		h234.375h281.25c25.887,0,46.875-20.988,46.875-46.875S1033.699,703.125,1007.813,703.125z"/>
	<path fill="#484848" d="M1007.813,914.063H492.188c-25.887,0-46.875,20.988-46.875,46.875s20.988,46.875,46.875,46.875h515.625
		c25.887,0,46.875-20.988,46.875-46.875S1033.699,914.063,1007.813,914.063z"/>
</g>
</svg>
