<?xml version="1.0" encoding="utf-8"?>
<!-- Generator: Adobe Illustrator 16.0.0, SVG Export Plug-In . SVG Version: 6.00 Build 0)  -->
<!DOCTYPE svg PUBLIC "-//W3C//DTD SVG 1.1//EN" "http://www.w3.org/Graphics/SVG/1.1/DTD/svg11.dtd">
<svg version="1.1" id="Capa_1" xmlns="http://www.w3.org/2000/svg" xmlns:xlink="http://www.w3.org/1999/xlink" x="0px" y="0px"
	 width="1192.662px" height="1500px" viewBox="153.669 0 1192.662 1500" enable-background="new 153.669 0 1192.662 1500"
	 xml:space="preserve">
<g>
	<path fill="#484848" d="M958.73,0H153.669v1500h1192.662V387.6L958.73,0z M1146.575,353.37H993.008V199.795L1146.575,353.37z
		 M270.681,1382.987V117.013h605.314v294.864c0,32.311,26.188,58.506,58.507,58.506h294.816v912.604H270.681z"/>
	<rect x="414.545" y="1162.356" fill="#484848" width="670.918" height="78.008"/>
	<rect x="414.545" y="429.834" fill="#484848" width="398.295" height="78.009"/>
	<polygon fill="#484848" points="945.836,678.166 989.068,678.166 821.982,845.244 691.334,714.596 402.5,1003.453 
		457.652,1058.621 691.334,824.923 821.982,955.563 1044.229,733.318 1044.229,776.457 1122.236,776.457 1122.236,600.157 
		945.836,600.157 	"/>
	<rect x="414.545" y="259.635" fill="#484848" width="398.295" height="78.008"/>
</g>
</svg>
