<?xml version="1.0" encoding="utf-8"?>
<!-- Generator: Adobe Illustrator 16.0.0, SVG Export Plug-In . SVG Version: 6.00 Build 0)  -->
<!DOCTYPE svg PUBLIC "-//W3C//DTD SVG 1.1//EN" "http://www.w3.org/Graphics/SVG/1.1/DTD/svg11.dtd">
<svg version="1.1" id="Capa_1" xmlns="http://www.w3.org/2000/svg" xmlns:xlink="http://www.w3.org/1999/xlink" x="0px" y="0px"
	 width="1496.732px" height="1355.018px" viewBox="1.632 144.983 1496.732 1355.018"
	 enable-background="new 1.632 144.983 1496.732 1355.018" xml:space="preserve">
<g>
	<path fill="#707070" d="M1476.925,999.518c-25.439-22.375-66.817-19.003-89.192,6.437L1151.724,1272V208.736
		c0-34.941-28.812-63.753-63.753-63.753s-63.753,28.812-63.753,63.753V1272l-236.009-266.046
		c-25.439-25.439-63.753-28.812-89.193-6.437c-25.44,25.44-28.811,63.753-6.437,89.193l347.577,388.954
		c26.053,32.183,72.028,27.279,92.564,0l350.641-388.954C1505.736,1063.577,1502.672,1021.893,1476.925,999.518z"/>
	<path fill="#000028" d="M807.314,559.338l-344.51-388.955c-30.65-30.957-68.964-32.796-95.63,0L16.533,559.338
		C-5.842,584.777-2.47,626.155,22.97,648.53c39.232,31.264,78.771,9.809,89.192-6.437l236.009-266.046v1060.199
		c0,34.941,28.812,63.753,63.753,63.753s63.753-25.439,63.753-60.688V376.354L711.685,642.4
		c25.44,25.439,63.754,28.812,89.194,6.437C826.318,623.091,829.689,584.777,807.314,559.338z"/>
</g>
</svg>
