<?xml version="1.0" encoding="utf-8"?>
<!-- Generator: Adobe Illustrator 16.0.0, SVG Export Plug-In . SVG Version: 6.00 Build 0)  -->
<!DOCTYPE svg PUBLIC "-//W3C//DTD SVG 1.1//EN" "http://www.w3.org/Graphics/SVG/1.1/DTD/svg11.dtd">
<svg version="1.1" id="icon" xmlns="http://www.w3.org/2000/svg" xmlns:xlink="http://www.w3.org/1999/xlink" x="0px" y="0px"
	 width="28px" height="26px" viewBox="2 4 28 26" enable-background="new 2 4 28 26" xml:space="preserve">
<g>
	<path fill="#484848" d="M28,20h-2v2h2v6H4v-6h2v-2H4c-1.104,0.002-1.999,0.896-2,2v6c0.001,1.104,0.896,1.998,2,2h24
		c1.104-0.002,1.998-0.896,2-2v-6C29.998,20.896,29.104,20.002,28,20z"/>
	<circle fill="#484848" cx="7" cy="25" r="1"/>
	<path fill="#484848" d="M15,20H8v-7h7V20z M10,18h3v-3h-3V18z"/>
	<path fill="#484848" d="M24,20h-7v-7h7V20z M19,18h3v-3h-3V18z"/>
	<path fill="#484848" d="M15,11H8V4h7V11z M10,9h3V6h-3V9z"/>
	<path fill="#484848" d="M24,11h-7V4h7V11z M19,9h3V6h-3V9z"/>
</g>
</svg>
