<?xml version="1.0" encoding="utf-8"?>
<!-- Generator: Adobe Illustrator 16.0.0, SVG Export Plug-In . SVG Version: 6.00 Build 0)  -->
<!DOCTYPE svg PUBLIC "-//W3C//DTD SVG 1.1//EN" "http://www.w3.org/Graphics/SVG/1.1/DTD/svg11.dtd">
<svg version="1.1" id="Layer_1" xmlns="http://www.w3.org/2000/svg" xmlns:xlink="http://www.w3.org/1999/xlink" x="0px" y="0px"
	 width="20px" height="20px" viewBox="2 2 20 20" enable-background="new 2 2 20 20" xml:space="preserve">
<g>
	<path fill="#484848" d="M12,2c5.523,0,10,4.477,10,10c0,5.523-4.477,10-10,10C6.477,22,2,17.523,2,12h2c0,4.418,3.582,8,8,8
		s8-3.582,8-8s-3.582-8-8-8C9.25,4,6.824,5.387,5.385,7.5H8v2H2v-6h2V6C5.824,3.57,8.729,2,12,2z M13,7v4.585l3.243,3.243
		l-1.415,1.415L11,12.413V7H13z"/>
</g>
</svg>
