<?xml version="1.0" encoding="utf-8"?>
<!-- Generator: Adobe Illustrator 16.0.0, SVG Export Plug-In . SVG Version: 6.00 Build 0)  -->
<!DOCTYPE svg PUBLIC "-//W3C//DTD SVG 1.1//EN" "http://www.w3.org/Graphics/SVG/1.1/DTD/svg11.dtd">
<svg version="1.1" id="icons" xmlns="http://www.w3.org/2000/svg" xmlns:xlink="http://www.w3.org/1999/xlink" x="0px" y="0px"
	 width="1218.75px" height="1171.875px" viewBox="140.625 164.063 1218.75 1171.875"
	 enable-background="new 140.625 164.063 1218.75 1171.875" xml:space="preserve">
<title></title>
<g>
	<path fill="#484848" d="M1218.75,164.063h-937.5c-77.665,0-140.625,62.96-140.625,140.625v890.625
		c0,77.665,62.96,140.625,140.625,140.625h937.5c77.665,0,140.625-62.96,140.625-140.625V304.688
		C1359.375,227.022,1296.415,164.063,1218.75,164.063z M1265.625,1195.313c0,25.889-20.986,46.875-46.875,46.875h-937.5
		c-25.888,0-46.875-20.986-46.875-46.875V304.688c0-25.888,20.987-46.875,46.875-46.875h937.5c25.889,0,46.875,20.987,46.875,46.875
		V1195.313z"/>
	<path fill="#484848" d="M1054.688,679.688c25.889,0,46.875-20.986,46.875-46.875s-20.986-46.875-46.875-46.875H535.078
		l60.469-60.703c16.839-19.663,14.55-49.255-5.113-66.094c-17.549-15.028-43.432-15.028-60.98,0L388.828,599.766
		c-13.463,13.374-17.534,33.545-10.313,51.094c7.297,17.491,24.407,28.867,43.359,28.828H1054.688z"/>
	<path fill="#484848" d="M1101.563,843.75H468.75c-25.889,0-46.875,20.986-46.875,46.875S442.861,937.5,468.75,937.5h519.609
		l-60.469,60.703c-19.663,16.839-21.953,46.431-5.113,66.094c16.839,19.663,46.43,21.953,66.094,5.113
		c1.833-1.57,3.543-3.279,5.113-5.113l140.625-140.625c13.463-13.374,17.534-33.545,10.313-51.094
		C1137.625,855.087,1120.515,843.711,1101.563,843.75z"/>
</g>
</svg>
