<?xml version="1.0" encoding="utf-8"?>
<!-- Generator: Adobe Illustrator 16.0.0, SVG Export Plug-In . SVG Version: 6.00 Build 0)  -->
<!DOCTYPE svg PUBLIC "-//W3C//DTD SVG 1.1//EN" "http://www.w3.org/Graphics/SVG/1.1/DTD/svg11.dtd">
<svg version="1.1" id="Layer_1" xmlns="http://www.w3.org/2000/svg" xmlns:xlink="http://www.w3.org/1999/xlink" x="0px" y="0px"
	 width="766.457px" height="1341.663px" viewBox="366.771 92.505 766.457 1341.663"
	 enable-background="new 366.771 92.505 766.457 1341.663" xml:space="preserve">
<g id="Online_payment_confirmation">
	<rect x="509.328" y="1118.537" fill="#484848" width="298.533" height="35.156"/>
	<rect x="509.328" y="1042.537" fill="#484848" width="467.568" height="35.156"/>
	<rect x="857.159" y="1118.346" fill="#484848" width="119.737" height="35.156"/>
	<path fill="#484848" d="M1037.441,92.505H462.559c-52.901,0-95.786,42.884-95.787,95.785c0,0,0,0,0,0.001v1150.092
		c0,52.9,42.886,95.785,95.787,95.785l0,0h574.883c52.901,0,95.786-42.884,95.787-95.785l0,0V188.291
		C1133.229,135.39,1090.344,92.505,1037.441,92.505L1037.441,92.505z M816.957,1374.953H682.886v-35.156h134.071V1374.953z
		 M1088.58,1256.118c0,16.181-13.116,29.297-29.297,29.297H440.716c-16.18,0-29.297-13.116-29.297-29.297V268.996
		c0-16.18,13.117-29.297,29.297-29.297h618.567c16.181,0,29.297,13.117,29.297,29.297V1256.118z"/>
	<path fill="#484848" d="M914.115,491.704c-34.859-0.005-63.115-28.268-63.11-63.128c0.005-34.853,28.258-63.106,63.11-63.11V330.31
		c-54.275,0-98.275,44-98.274,98.276c0,54.275,44,98.274,98.275,98.274c54.276,0,98.275-44,98.275-98.276l0,0h-35.156
		C977.196,463.428,948.959,491.664,914.115,491.704z"/>
	<path fill="#484848" d="M872.861,419.961l31.569,35.749c3.24,3.669,7.899,5.77,12.793,5.77h0.045
		c4.909-0.013,9.575-2.14,12.806-5.836l66.227-75.778l-24.479-23.857l-54.666,62.549l-19.509-22.093L872.861,419.961z"/>
	<path fill="#484848" d="M737.285,542.322h62.9v-35.156h-38.467V481.08h-35.156v27.338c-25.806,5.91-41.934,31.622-36.022,57.427
		c4.991,21.794,24.387,37.243,46.745,37.233h13.807c9.109,0,16.492,7.384,16.492,16.492s-7.383,16.492-16.492,16.492h-62.994v35.156
		h34.818v26.087h35.156V670.69c28.249-3.838,48.038-29.85,44.2-58.099c-3.478-25.6-25.345-44.686-51.18-44.67h-13.808
		c-7.069,0.009-12.807-5.715-12.815-12.784c-0.009-7.068,5.715-12.807,12.784-12.815
		C737.264,542.322,737.274,542.322,737.285,542.322L737.285,542.322z"/>
	<path fill="#484848" d="M744.143,951.533c110.896-0.124,200.764-89.992,200.889-200.889c0.03-27.247-5.534-54.21-16.348-79.219
		c10.817-25.049,16.381-52.051,16.348-79.336c0.002-11.091-0.91-22.164-2.725-33.105c-9.259,2.019-18.708,3.03-28.184,3.018
		c-2.344,0-4.688-0.059-7.002-0.176c16.7,89.981-42.705,176.464-132.687,193.164c-89.981,16.701-176.464-42.705-193.164-132.686
		c-16.7-89.981,42.705-176.464,132.686-193.164c22.106-4.104,44.817-3.665,66.749,1.289c-0.029-0.615-0.029-1.23-0.029-1.846
		c-0.002-11.206,1.405-22.368,4.189-33.223c-108.597-22.543-214.906,47.217-237.449,155.813
		c-8.384,40.384-4.129,82.369,12.185,120.251c-10.823,25.007-16.397,51.97-16.377,79.219
		C543.362,861.546,633.24,951.411,744.143,951.533z M582.98,711.943c66.076,88.999,191.79,107.582,280.789,41.506
		c15.795-11.727,29.779-25.711,41.506-41.506c3.068,12.671,4.612,25.664,4.6,38.701c0.042,91.54-74.131,165.782-165.67,165.824
		c-91.54,0.043-165.782-74.13-165.825-165.67C578.374,737.711,579.918,724.668,582.98,711.943z"/>
</g>
</svg>
