<?xml version="1.0" encoding="utf-8"?>
<!-- Generator: Adobe Illustrator 16.0.0, SVG Export Plug-In . SVG Version: 6.00 Build 0)  -->
<!DOCTYPE svg PUBLIC "-//W3C//DTD SVG 1.1//EN" "http://www.w3.org/Graphics/SVG/1.1/DTD/svg11.dtd">
<svg version="1.1" id="Layer_1" xmlns="http://www.w3.org/2000/svg" xmlns:xlink="http://www.w3.org/1999/xlink" x="0px" y="0px"
	 width="914.063px" height="1122.656px" viewBox="292.969 187.5 914.063 1122.656"
	 enable-background="new 292.969 187.5 914.063 1122.656" xml:space="preserve">
<g>
	<g id="Icon-Trash" transform="translate(232.000000, 228.000000)">
		<polygon id="Fill-6" fill="#E6515D" points="342.219,308.719 412.531,308.719 412.531,871.219 342.219,871.219 		"/>
		<polygon id="Fill-7" fill="#E6515D" points="482.844,308.719 553.156,308.719 553.156,871.219 482.844,871.219 		"/>
		<polygon id="Fill-8" fill="#E6515D" points="623.469,308.719 693.781,308.719 693.781,871.219 623.469,871.219 		"/>
		<polygon id="Fill-9" fill="#E6515D" points="60.969,97.781 975.031,97.781 975.031,168.094 60.969,168.094 		"/>
		<path id="Fill-10" fill="#E6515D" d="M691.438,132.938h-65.625V62.625c0-21.094-16.406-37.5-37.5-37.5H447.688
			c-21.094,0-37.5,16.406-37.5,37.5v70.313h-65.625V62.625c0-56.25,46.875-103.125,103.125-103.125h140.625
			c56.249,0,103.124,46.875,103.124,103.125L691.438,132.938"/>
		<path id="Fill-11" fill="#E6515D" d="M728.938,1082.156H307.063c-56.25,0-105.469-46.875-110.156-103.125l-65.625-843.75
			l70.313-4.688l65.625,843.75c2.344,21.094,21.094,37.5,39.844,37.5h421.875c21.094,0,39.844-18.75,39.844-37.5l65.625-843.75
			l70.313,4.688l-65.625,843.75C834.406,1037.625,785.188,1082.156,728.938,1082.156"/>
	</g>
</g>
</svg>
