<?xml version="1.0" encoding="utf-8"?>
<!-- Generator: Adobe Illustrator 16.0.0, SVG Export Plug-In . SVG Version: 6.00 Build 0)  -->
<!DOCTYPE svg PUBLIC "-//W3C//DTD SVG 1.1//EN" "http://www.w3.org/Graphics/SVG/1.1/DTD/svg11.dtd">
<svg version="1.1" id="Layer_1" xmlns="http://www.w3.org/2000/svg" xmlns:xlink="http://www.w3.org/1999/xlink" x="0px" y="0px"
	 width="1500px" height="1401.188px" viewBox="0 49.407 1500 1401.188" enable-background="new 0 49.407 1500 1401.188"
	 xml:space="preserve">
<g>
	<g>
		<g>
			<path fill="#484848" d="M1291.647,632.724c-20.272,27.197-43.478,51.279-68.923,71.568
				c107.784,68.756,179.417,189.382,179.417,326.435c0,44.484-65.272,75.159-104.177,89.485
				c-30.338,11.171-66.01,20.317-104.998,27.227c1.263,16.472,1.911,33.117,1.911,49.905c0,14.531-1.269,31.467-4.951,49.903
				c52.398-8.146,100.514-19.988,141.851-35.208C1470.816,1160.848,1500,1085.183,1500,1030.727
				C1499.997,866.082,1417.479,720.376,1291.647,632.724z"/>
			<path fill="#484848" d="M1015.227,49.407c-61.107,0-118.768,24.255-165.453,68.971c18.37,23.524,34.422,48.94,48.057,75.825
				c31.287-35.685,72.396-57.415,117.396-57.415c97.708,0,177.199,102.265,177.199,227.963
				c0,125.698-79.491,227.963-177.199,227.963c-29.39,0-57.105-9.307-81.53-25.664c-7.933,28.909-18.354,56.82-31.085,83.389
				c34.713,19.414,72.935,29.659,112.615,29.659c149.489,0,264.583-144.499,264.583-315.347
				C1279.81,193.887,1164.7,49.407,1015.227,49.407z"/>
			<path fill="#484848" d="M848.073,738.088c-21.159,26.764-43.659,49.218-67.096,68.146
				c133.214,79.48,222.644,225.037,222.644,391.106c0,56.091-78.624,93.416-125.49,110.671
				c-84.889,31.258-205.028,49.182-329.617,49.182c-124.59,0-244.732-17.924-329.622-49.182
				c-46.866-17.255-125.489-54.577-125.489-110.671c0-166.073,89.43-311.629,222.644-391.106
				c-23.434-18.926-45.937-41.383-67.096-68.146C99.169,836.122,0,1005.355,0,1197.344c0,59.128,32.377,141.528,186.619,198.32
				c96.211,35.427,224.734,54.932,361.891,54.932c137.157,0,265.68-19.505,361.891-54.932
				c154.242-56.792,186.619-139.192,186.619-198.32C1097.02,1005.355,997.854,836.122,848.073,738.088z"/>
			<path fill="#484848" d="M548.51,791.855c172.887,0,305.979-167.116,305.979-364.686c0-197.573-133.108-364.686-305.979-364.686
				c-172.86,0-305.979,167.081-305.979,364.686C242.53,624.778,375.662,791.855,548.51,791.855z M548.51,155.883
				c117.218,0,212.577,121.699,212.577,271.283c0,149.585-95.363,271.284-212.577,271.284S335.933,576.751,335.933,427.166
				C335.933,277.582,431.296,155.883,548.51,155.883z"/>
		</g>
	</g>
</g>
</svg>
